<svg fill="#F1F3F4" viewBox="0 0 320 1957" preserveAspectRatio="xMinYMin slice" xmlns="http://www.w3.org/2000/svg"><path d="M2.92 0h99.17c1.61 0 2.92 1.31 2.92 2.92v.42c0 1.61-1.31 2.92-2.92 2.92H2.92A2.938 2.938 0 0 1 0 3.33v-.41C0 1.31 1.31 0 2.92 0z"><animate id="b" attributeName="opacity" begin="0s;a.end" dur="0.5s" from=".3" to="1"/><animate id="a" attributeName="opacity" from="1" to=".3" dur="2s" begin="b.end"/></path><path d="M2.92 10.83h62.5c1.61 0 2.92 1.31 2.92 2.92v.42c0 1.61-1.31 2.92-2.92 2.92H2.92A2.93 2.93 0 0 1 0 14.17v-.42c0-1.61 1.31-2.92 2.92-2.92z"><animate attributeName="opacity" begin="0s;a.end" dur="0.5s" from=".3" to="1"/><animate attributeName="opacity" from="1" to=".3" dur="2s" begin="b.end"/></path><path d="M2.92 30.83h71.67c1.61 0 2.92 1.31 2.92 2.92V97.5c0 1.61-1.31 2.92-2.92 2.92H2.92C1.31 100.42 0 99.11 0 97.5V33.75c0-1.61 1.31-2.92 2.92-2.92z"><animate attributeName="opacity" begin="0s;a.end" dur="0.5s" from="0" to="1"/><animate attributeName="opacity" from="1" to="0" dur="2s" begin="b.end"/></path><path d="M87.92 32.08h148.33c1.61 0 2.92 1.31 2.92 2.92v.42c0 1.61-1.31 2.92-2.92 2.92H87.92c-1.61 0-2.92-1.31-2.92-2.92V35c0-1.61 1.31-2.92 2.92-2.92z"><animate attributeName="opacity" begin="0s;a.end" dur="0.5s" from=".3" to="1"/><animate attributeName="opacity" from="1" to=".3" dur="2s" begin="b.end"/></path><path d="M87.92 42.92h148.33c1.61 0 2.92 1.31 2.92 2.92v.42c0 1.61-1.31 2.92-2.92 2.92H87.92c-1.61 0-2.92-1.31-2.92-2.92v-.42c0-1.62 1.31-2.92 2.92-2.92z"><animate attributeName="opacity" begin="0s;a.end" dur="0.5s" from=".3" to="1"/><animate attributeName="opacity" from="1" to=".3" dur="2s" begin="b.end"/></path><path d="M87.92 53.75h148.33c1.61 0 2.92 1.31 2.92 2.92v.42c0 1.61-1.31 2.92-2.92 2.92H87.92A2.938 2.938 0 0 1 85 57.08v-.42c0-1.6 1.31-2.91 2.92-2.91z"><animate attributeName="opacity" begin="0s;a.end" dur="0.5s" from=".3" to="1"/><animate attributeName="opacity" from="1" to=".3" dur="2s" begin="b.end"/></path><path d="M87.92 64.58h108.33c1.61 0 2.92 1.31 2.92 2.92v.42c0 1.61-1.31 2.92-2.92 2.92H87.92c-1.61 0-2.92-1.31-2.92-2.92v-.42c0-1.61 1.31-2.92 2.92-2.92z"><animate attributeName="opacity" begin="0s;a.end" dur="0.5s" from=".3" to="1"/><animate attributeName="opacity" from="1" to=".3" dur="2s" begin="b.end"/></path><path d="M87.92 85.83h148.33c1.61 0 2.92 1.31 2.92 2.92v8.75c0 1.61-1.31 2.92-2.92 2.92H87.92c-1.61 0-2.92-1.31-2.92-2.92v-8.75c0-1.61 1.31-2.92 2.92-2.92z"><animate attributeName="opacity" begin="0s;a.end" dur="0.5s" from=".3" to="1"/><animate attributeName="opacity" from="1" to=".3" dur="2s" begin="b.end"/></path><path d="M2.92 129.17h62.5c1.61 0 2.92 1.31 2.92 2.92v.42c0 1.61-1.31 2.92-2.92 2.92H2.92c-1.61 0-2.92-1.31-2.92-2.92v-.42c0-1.62 1.31-2.92 2.92-2.92z"><animate attributeName="opacity" begin="0s;a.end" dur="0.5s" from=".3" to="1"/><animate attributeName="opacity" from="1" to=".3" dur="2s" begin="b.end"/></path><path d="M2.92 143.33h71.67c1.61 0 2.92 1.31 2.92 2.92V210c0 1.61-1.31 2.92-2.92 2.92H2.92C1.31 212.92 0 211.61 0 210v-63.75c0-1.61 1.31-2.92 2.92-2.92z"><animate attributeName="opacity" begin="0s;a.end" dur="0.5s" from="0" to="1"/><animate attributeName="opacity" from="1" to="0" dur="2s" begin="b.end"/></path><path d="M83.75 143.33h71.67c1.61 0 2.92 1.31 2.92 2.92V210c0 1.61-1.31 2.92-2.92 2.92H83.75c-1.61 0-2.92-1.31-2.92-2.92v-63.75c0-1.61 1.31-2.92 2.92-2.92z"><animate attributeName="opacity" begin="0s;a.end" dur="0.5s" from="0" to="1"/><animate attributeName="opacity" from="1" to="0" dur="2s" begin="b.end"/></path><path d="M164.58 143.33h71.67c1.61 0 2.92 1.31 2.92 2.92V210c0 1.61-1.31 2.92-2.92 2.92h-71.67c-1.61 0-2.92-1.31-2.92-2.92v-63.75a2.93 2.93 0 0 1 2.92-2.92z"><animate attributeName="opacity" begin="0s;a.end" dur="0.5s" from="0" to="1"/><animate attributeName="opacity" from="1" to="0" dur="2s" begin="b.end"/></path><path d="M245.42 143.33h71.67c1.61 0 2.92 1.31 2.92 2.92V210c0 1.61-1.31 2.92-2.92 2.92h-71.67c-1.61 0-2.92-1.31-2.92-2.92v-63.75c0-1.61 1.31-2.92 2.92-2.92z"><animate attributeName="opacity" begin="0s;a.end" dur="0.5s" from="0" to="1"/><animate attributeName="opacity" from="1" to="0" dur="2s" begin="b.end"/></path><path d="M2.92 219.17h71.67c1.61 0 2.92 1.31 2.92 2.92v63.75c0 1.61-1.31 2.92-2.92 2.92H2.92c-1.61 0-2.92-1.31-2.92-2.92v-63.75c0-1.62 1.31-2.92 2.92-2.92z"><animate attributeName="opacity" begin="0s;a.end" dur="0.5s" from="0" to="1"/><animate attributeName="opacity" from="1" to="0" dur="2s" begin="b.end"/></path><path d="M83.75 219.17h71.67c1.61 0 2.92 1.31 2.92 2.92v63.75c0 1.61-1.31 2.92-2.92 2.92H83.75c-1.61 0-2.92-1.31-2.92-2.92v-63.75c0-1.62 1.31-2.92 2.92-2.92z"><animate attributeName="opacity" begin="0s;a.end" dur="0.5s" from="0" to="1"/><animate attributeName="opacity" from="1" to="0" dur="2s" begin="b.end"/></path><path d="M164.58 219.17h71.67c1.61 0 2.92 1.31 2.92 2.92v63.75c0 1.61-1.31 2.92-2.92 2.92h-71.67c-1.61 0-2.92-1.31-2.92-2.92v-63.75a2.923 2.923 0 0 1 2.92-2.92z"><animate attributeName="opacity" begin="0s;a.end" dur="0.5s" from="0" to="1"/><animate attributeName="opacity" from="1" to="0" dur="2s" begin="b.end"/></path><path d="M245.42 219.17h71.67c1.61 0 2.92 1.31 2.92 2.92v63.75c0 1.61-1.31 2.92-2.92 2.92h-71.67c-1.61 0-2.92-1.31-2.92-2.92v-63.75c0-1.62 1.31-2.92 2.92-2.92z"><animate attributeName="opacity" begin="0s;a.end" dur="0.5s" from="0" to="1"/><animate attributeName="opacity" from="1" to="0" dur="2s" begin="b.end"/></path><path d="M2.92 295h71.67c1.61 0 2.92 1.31 2.92 2.92v63.75c0 1.61-1.31 2.92-2.92 2.92H2.92c-1.61 0-2.92-1.31-2.92-2.92v-63.75c0-1.61 1.31-2.92 2.92-2.92z"><animate attributeName="opacity" begin="0s;a.end" dur="0.5s" from="0" to="1"/><animate attributeName="opacity" from="1" to="0" dur="2s" begin="b.end"/></path><path d="M83.75 295h71.67c1.61 0 2.92 1.31 2.92 2.92v63.75c0 1.61-1.31 2.92-2.92 2.92H83.75c-1.61 0-2.92-1.31-2.92-2.92v-63.75c0-1.61 1.31-2.92 2.92-2.92z"><animate attributeName="opacity" begin="0s;a.end" dur="0.5s" from="0" to="1"/><animate attributeName="opacity" from="1" to="0" dur="2s" begin="b.end"/></path><path d="M164.58 295h71.67c1.61 0 2.92 1.31 2.92 2.92v63.75c0 1.61-1.31 2.92-2.92 2.92h-71.67c-1.61 0-2.92-1.31-2.92-2.92v-63.75a2.93 2.93 0 0 1 2.92-2.92z"><animate attributeName="opacity" begin="0s;a.end" dur="0.5s" from="0" to="1"/><animate attributeName="opacity" from="1" to="0" dur="2s" begin="b.end"/></path><path d="M245.42 295h71.67c1.61 0 2.92 1.31 2.92 2.92v63.75c0 1.61-1.31 2.92-2.92 2.92h-71.67c-1.61 0-2.92-1.31-2.92-2.92v-63.75c0-1.61 1.31-2.92 2.92-2.92z"><animate attributeName="opacity" begin="0s;a.end" dur="0.5s" from="0" to="1"/><animate attributeName="opacity" from="1" to="0" dur="2s" begin="b.end"/></path><path d="M2.92 370.83h71.67c1.61 0 2.92 1.31 2.92 2.92v63.75c0 1.61-1.31 2.92-2.92 2.92H2.92c-1.61 0-2.92-1.31-2.92-2.92v-63.75c0-1.61 1.31-2.92 2.92-2.92z"><animate attributeName="opacity" begin="0s;a.end" dur="0.5s" from="0" to="1"/><animate attributeName="opacity" from="1" to="0" dur="2s" begin="b.end"/></path><path d="M83.75 370.83h71.67c1.61 0 2.92 1.31 2.92 2.92v63.75c0 1.61-1.31 2.92-2.92 2.92H83.75c-1.61 0-2.92-1.31-2.92-2.92v-63.75c0-1.61 1.31-2.92 2.92-2.92z"><animate attributeName="opacity" begin="0s;a.end" dur="0.5s" from="0" to="1"/><animate attributeName="opacity" from="1" to="0" dur="2s" begin="b.end"/></path><path d="M164.58 370.83h71.67c1.61 0 2.92 1.31 2.92 2.92v63.75c0 1.61-1.31 2.92-2.92 2.92h-71.67c-1.61 0-2.92-1.31-2.92-2.92v-63.75a2.93 2.93 0 0 1 2.92-2.92z"><animate attributeName="opacity" begin="0s;a.end" dur="0.5s" from="0" to="1"/><animate attributeName="opacity" from="1" to="0" dur="2s" begin="b.end"/></path><path d="M245.42 370.83h71.67c1.61 0 2.92 1.31 2.92 2.92v63.75c0 1.61-1.31 2.92-2.92 2.92h-71.67c-1.61 0-2.92-1.31-2.92-2.92v-63.75c0-1.61 1.31-2.92 2.92-2.92z"><animate attributeName="opacity" begin="0s;a.end" dur="0.5s" from="0" to="1"/><animate attributeName="opacity" from="1" to="0" dur="2s" begin="b.end"/></path><path d="M2.92 446.67h71.67c1.61 0 2.92 1.31 2.92 2.92v63.75c0 1.61-1.31 2.92-2.92 2.92H2.92c-1.61 0-2.92-1.31-2.92-2.92v-63.75c0-1.62 1.31-2.92 2.92-2.92z"><animate attributeName="opacity" begin="0s;a.end" dur="0.5s" from="0" to="1"/><animate attributeName="opacity" from="1" to="0" dur="2s" begin="b.end"/></path><path d="M83.75 446.67h71.67c1.61 0 2.92 1.31 2.92 2.92v63.75c0 1.61-1.31 2.92-2.92 2.92H83.75c-1.61 0-2.92-1.31-2.92-2.92v-63.75c0-1.62 1.31-2.92 2.92-2.92z"><animate attributeName="opacity" begin="0s;a.end" dur="0.5s" from="0" to="1"/><animate attributeName="opacity" from="1" to="0" dur="2s" begin="b.end"/></path><path d="M164.58 446.67h71.67c1.61 0 2.92 1.31 2.92 2.92v63.75c0 1.61-1.31 2.92-2.92 2.92h-71.67c-1.61 0-2.92-1.31-2.92-2.92v-63.75a2.923 2.923 0 0 1 2.92-2.92z"><animate attributeName="opacity" begin="0s;a.end" dur="0.5s" from="0" to="1"/><animate attributeName="opacity" from="1" to="0" dur="2s" begin="b.end"/></path><path d="M245.42 446.67h71.67c1.61 0 2.92 1.31 2.92 2.92v63.75c0 1.61-1.31 2.92-2.92 2.92h-71.67c-1.61 0-2.92-1.31-2.92-2.92v-63.75c0-1.62 1.31-2.92 2.92-2.92z"><animate attributeName="opacity" begin="0s;a.end" dur="0.5s" from="0" to="1"/><animate attributeName="opacity" from="1" to="0" dur="2s" begin="b.end"/></path><path d="M2.92 522.5h71.67c1.61 0 2.92 1.31 2.92 2.92v63.75c0 1.61-1.31 2.92-2.92 2.92H2.92c-1.61 0-2.92-1.31-2.92-2.92v-63.75c0-1.61 1.31-2.92 2.92-2.92z"><animate attributeName="opacity" begin="0s;a.end" dur="0.5s" from="0" to="1"/><animate attributeName="opacity" from="1" to="0" dur="2s" begin="b.end"/></path><path d="M83.75 522.5h71.67c1.61 0 2.92 1.31 2.92 2.92v63.75c0 1.61-1.31 2.92-2.92 2.92H83.75c-1.61 0-2.92-1.31-2.92-2.92v-63.75c0-1.61 1.31-2.92 2.92-2.92z"><animate attributeName="opacity" begin="0s;a.end" dur="0.5s" from="0" to="1"/><animate attributeName="opacity" from="1" to="0" dur="2s" begin="b.end"/></path><path d="M164.58 522.5h71.67c1.61 0 2.92 1.31 2.92 2.92v63.75c0 1.61-1.31 2.92-2.92 2.92h-71.67c-1.61 0-2.92-1.31-2.92-2.92v-63.75a2.93 2.93 0 0 1 2.92-2.92z"><animate attributeName="opacity" begin="0s;a.end" dur="0.5s" from="0" to="1"/><animate attributeName="opacity" from="1" to="0" dur="2s" begin="b.end"/></path><path d="M245.42 522.5h71.67c1.61 0 2.92 1.31 2.92 2.92v63.75c0 1.61-1.31 2.92-2.92 2.92h-71.67c-1.61 0-2.92-1.31-2.92-2.92v-63.75c0-1.61 1.31-2.92 2.92-2.92z"><animate attributeName="opacity" begin="0s;a.end" dur="0.5s" from="0" to="1"/><animate attributeName="opacity" from="1" to="0" dur="2s" begin="b.end"/></path><path d="M2.92 598.33h71.67c1.61 0 2.92 1.31 2.92 2.92V665c0 1.61-1.31 2.92-2.92 2.92H2.92C1.31 667.92 0 666.61 0 665v-63.75c0-1.61 1.31-2.92 2.92-2.92z"><animate attributeName="opacity" begin="0s;a.end" dur="0.5s" from="0" to="1"/><animate attributeName="opacity" from="1" to="0" dur="2s" begin="b.end"/></path><path d="M83.75 598.33h71.67c1.61 0 2.92 1.31 2.92 2.92V665c0 1.61-1.31 2.92-2.92 2.92H83.75c-1.61 0-2.92-1.31-2.92-2.92v-63.75c0-1.61 1.31-2.92 2.92-2.92z"><animate attributeName="opacity" begin="0s;a.end" dur="0.5s" from="0" to="1"/><animate attributeName="opacity" from="1" to="0" dur="2s" begin="b.end"/></path><path d="M164.58 598.33h71.67c1.61 0 2.92 1.31 2.92 2.92V665c0 1.61-1.31 2.92-2.92 2.92h-71.67c-1.61 0-2.92-1.31-2.92-2.92v-63.75a2.93 2.93 0 0 1 2.92-2.92z"><animate attributeName="opacity" begin="0s;a.end" dur="0.5s" from="0" to="1"/><animate attributeName="opacity" from="1" to="0" dur="2s" begin="b.end"/></path><path d="M245.42 598.33h71.67c1.61 0 2.92 1.31 2.92 2.92V665c0 1.61-1.31 2.92-2.92 2.92h-71.67c-1.61 0-2.92-1.31-2.92-2.92v-63.75c0-1.61 1.31-2.92 2.92-2.92z"><animate attributeName="opacity" begin="0s;a.end" dur="0.5s" from="0" to="1"/><animate attributeName="opacity" from="1" to="0" dur="2s" begin="b.end"/></path><path d="M2.92 674.17h71.67c1.61 0 2.92 1.31 2.92 2.92v63.75c0 1.61-1.31 2.92-2.92 2.92H2.92c-1.61 0-2.92-1.31-2.92-2.92v-63.75c0-1.62 1.31-2.92 2.92-2.92z"><animate attributeName="opacity" begin="0s;a.end" dur="0.5s" from="0" to="1"/><animate attributeName="opacity" from="1" to="0" dur="2s" begin="b.end"/></path><path d="M83.75 674.17h71.67c1.61 0 2.92 1.31 2.92 2.92v63.75c0 1.61-1.31 2.92-2.92 2.92H83.75c-1.61 0-2.92-1.31-2.92-2.92v-63.75c0-1.62 1.31-2.92 2.92-2.92z"><animate attributeName="opacity" begin="0s;a.end" dur="0.5s" from="0" to="1"/><animate attributeName="opacity" from="1" to="0" dur="2s" begin="b.end"/></path><path d="M164.58 674.17h71.67c1.61 0 2.92 1.31 2.92 2.92v63.75c0 1.61-1.31 2.92-2.92 2.92h-71.67c-1.61 0-2.92-1.31-2.92-2.92v-63.75a2.923 2.923 0 0 1 2.92-2.92z"><animate attributeName="opacity" begin="0s;a.end" dur="0.5s" from="0" to="1"/><animate attributeName="opacity" from="1" to="0" dur="2s" begin="b.end"/></path><path d="M245.42 674.17h71.67c1.61 0 2.92 1.31 2.92 2.92v63.75c0 1.61-1.31 2.92-2.92 2.92h-71.67c-1.61 0-2.92-1.31-2.92-2.92v-63.75c0-1.62 1.31-2.92 2.92-2.92z"><animate attributeName="opacity" begin="0s;a.end" dur="0.5s" from="0" to="1"/><animate attributeName="opacity" from="1" to="0" dur="2s" begin="b.end"/></path><path d="M2.92 750h71.67c1.61 0 2.92 1.31 2.92 2.92v63.75c0 1.61-1.31 2.92-2.92 2.92H2.92c-1.61 0-2.92-1.31-2.92-2.92v-63.75c0-1.61 1.31-2.92 2.92-2.92z"><animate attributeName="opacity" begin="0s;a.end" dur="0.5s" from="0" to="1"/><animate attributeName="opacity" from="1" to="0" dur="2s" begin="b.end"/></path><path d="M83.75 750h71.67c1.61 0 2.92 1.31 2.92 2.92v63.75c0 1.61-1.31 2.92-2.92 2.92H83.75c-1.61 0-2.92-1.31-2.92-2.92v-63.75c0-1.61 1.31-2.92 2.92-2.92z"><animate attributeName="opacity" begin="0s;a.end" dur="0.5s" from="0" to="1"/><animate attributeName="opacity" from="1" to="0" dur="2s" begin="b.end"/></path><path d="M164.58 750h71.67c1.61 0 2.92 1.31 2.92 2.92v63.75c0 1.61-1.31 2.92-2.92 2.92h-71.67c-1.61 0-2.92-1.31-2.92-2.92v-63.75a2.93 2.93 0 0 1 2.92-2.92z"><animate attributeName="opacity" begin="0s;a.end" dur="0.5s" from="0" to="1"/><animate attributeName="opacity" from="1" to="0" dur="2s" begin="b.end"/></path><path d="M245.42 750h71.67c1.61 0 2.92 1.31 2.92 2.92v63.75c0 1.61-1.31 2.92-2.92 2.92h-71.67c-1.61 0-2.92-1.31-2.92-2.92v-63.75c0-1.61 1.31-2.92 2.92-2.92z"><animate attributeName="opacity" begin="0s;a.end" dur="0.5s" from="0" to="1"/><animate attributeName="opacity" from="1" to="0" dur="2s" begin="b.end"/></path><path d="M2.92 825.83h71.67c1.61 0 2.92 1.31 2.92 2.92v63.75c0 1.61-1.31 2.92-2.92 2.92H2.92c-1.61 0-2.92-1.31-2.92-2.92v-63.75c0-1.61 1.31-2.92 2.92-2.92z"><animate attributeName="opacity" begin="0s;a.end" dur="0.5s" from="0" to="1"/><animate attributeName="opacity" from="1" to="0" dur="2s" begin="b.end"/></path><path d="M83.75 825.83h71.67c1.61 0 2.92 1.31 2.92 2.92v63.75c0 1.61-1.31 2.92-2.92 2.92H83.75c-1.61 0-2.92-1.31-2.92-2.92v-63.75c0-1.61 1.31-2.92 2.92-2.92z"><animate attributeName="opacity" begin="0s;a.end" dur="0.5s" from="0" to="1"/><animate attributeName="opacity" from="1" to="0" dur="2s" begin="b.end"/></path><path d="M164.58 825.83h71.67c1.61 0 2.92 1.31 2.92 2.92v63.75c0 1.61-1.31 2.92-2.92 2.92h-71.67c-1.61 0-2.92-1.31-2.92-2.92v-63.75a2.93 2.93 0 0 1 2.92-2.92z"><animate attributeName="opacity" begin="0s;a.end" dur="0.5s" from="0" to="1"/><animate attributeName="opacity" from="1" to="0" dur="2s" begin="b.end"/></path><path d="M245.42 825.83h71.67c1.61 0 2.92 1.31 2.92 2.92v63.75c0 1.61-1.31 2.92-2.92 2.92h-71.67c-1.61 0-2.92-1.31-2.92-2.92v-63.75c0-1.61 1.31-2.92 2.92-2.92z"><animate attributeName="opacity" begin="0s;a.end" dur="0.5s" from="0" to="1"/><animate attributeName="opacity" from="1" to="0" dur="2s" begin="b.end"/></path><path d="M2.92 901.67h71.67c1.61 0 2.92 1.31 2.92 2.92v63.75c0 1.61-1.31 2.92-2.92 2.92H2.92c-1.61 0-2.92-1.31-2.92-2.92v-63.75c0-1.62 1.31-2.92 2.92-2.92z"><animate attributeName="opacity" begin="0s;a.end" dur="0.5s" from="0" to="1"/><animate attributeName="opacity" from="1" to="0" dur="2s" begin="b.end"/></path><path d="M83.75 901.67h71.67c1.61 0 2.92 1.31 2.92 2.92v63.75c0 1.61-1.31 2.92-2.92 2.92H83.75c-1.61 0-2.92-1.31-2.92-2.92v-63.75c0-1.62 1.31-2.92 2.92-2.92z"><animate attributeName="opacity" begin="0s;a.end" dur="0.5s" from="0" to="1"/><animate attributeName="opacity" from="1" to="0" dur="2s" begin="b.end"/></path><path d="M164.58 901.67h71.67c1.61 0 2.92 1.31 2.92 2.92v63.75c0 1.61-1.31 2.92-2.92 2.92h-71.67c-1.61 0-2.92-1.31-2.92-2.92v-63.75a2.923 2.923 0 0 1 2.92-2.92z"><animate attributeName="opacity" begin="0s;a.end" dur="0.5s" from="0" to="1"/><animate attributeName="opacity" from="1" to="0" dur="2s" begin="b.end"/></path><path d="M245.42 901.67h71.67c1.61 0 2.92 1.31 2.92 2.92v63.75c0 1.61-1.31 2.92-2.92 2.92h-71.67c-1.61 0-2.92-1.31-2.92-2.92v-63.75c0-1.62 1.31-2.92 2.92-2.92z"><animate attributeName="opacity" begin="0s;a.end" dur="0.5s" from="0" to="1"/><animate attributeName="opacity" from="1" to="0" dur="2s" begin="b.end"/></path><path d="M2.92 977.5h71.67c1.61 0 2.92 1.31 2.92 2.92v63.75c0 1.61-1.31 2.92-2.92 2.92H2.92c-1.61 0-2.92-1.31-2.92-2.92v-63.75c0-1.61 1.31-2.92 2.92-2.92z"><animate attributeName="opacity" begin="0s;a.end" dur="0.5s" from="0" to="1"/><animate attributeName="opacity" from="1" to="0" dur="2s" begin="b.end"/></path><path d="M83.75 977.5h71.67c1.61 0 2.92 1.31 2.92 2.92v63.75c0 1.61-1.31 2.92-2.92 2.92H83.75c-1.61 0-2.92-1.31-2.92-2.92v-63.75c0-1.61 1.31-2.92 2.92-2.92z"><animate attributeName="opacity" begin="0s;a.end" dur="0.5s" from="0" to="1"/><animate attributeName="opacity" from="1" to="0" dur="2s" begin="b.end"/></path><path d="M164.58 977.5h71.67c1.61 0 2.92 1.31 2.92 2.92v63.75c0 1.61-1.31 2.92-2.92 2.92h-71.67c-1.61 0-2.92-1.31-2.92-2.92v-63.75a2.93 2.93 0 0 1 2.92-2.92z"><animate attributeName="opacity" begin="0s;a.end" dur="0.5s" from="0" to="1"/><animate attributeName="opacity" from="1" to="0" dur="2s" begin="b.end"/></path><path d="M245.42 977.5h71.67c1.61 0 2.92 1.31 2.92 2.92v63.75c0 1.61-1.31 2.92-2.92 2.92h-71.67c-1.61 0-2.92-1.31-2.92-2.92v-63.75c0-1.61 1.31-2.92 2.92-2.92z"><animate attributeName="opacity" begin="0s;a.end" dur="0.5s" from="0" to="1"/><animate attributeName="opacity" from="1" to="0" dur="2s" begin="b.end"/></path><path d="M2.92 1053.33h71.67c1.61 0 2.92 1.31 2.92 2.92V1120c0 1.61-1.31 2.92-2.92 2.92H2.92c-1.61 0-2.92-1.31-2.92-2.92v-63.75c0-1.61 1.31-2.92 2.92-2.92z"><animate attributeName="opacity" begin="0s;a.end" dur="0.5s" from="0" to="1"/><animate attributeName="opacity" from="1" to="0" dur="2s" begin="b.end"/></path><path d="M83.75 1053.33h71.67c1.61 0 2.92 1.31 2.92 2.92V1120c0 1.61-1.31 2.92-2.92 2.92H83.75c-1.61 0-2.92-1.31-2.92-2.92v-63.75c0-1.61 1.31-2.92 2.92-2.92z"><animate attributeName="opacity" begin="0s;a.end" dur="0.5s" from="0" to="1"/><animate attributeName="opacity" from="1" to="0" dur="2s" begin="b.end"/></path><path d="M164.58 1053.33h71.67c1.61 0 2.92 1.31 2.92 2.92V1120c0 1.61-1.31 2.92-2.92 2.92h-71.67c-1.61 0-2.92-1.31-2.92-2.92v-63.75a2.93 2.93 0 0 1 2.92-2.92z"><animate attributeName="opacity" begin="0s;a.end" dur="0.5s" from="0" to="1"/><animate attributeName="opacity" from="1" to="0" dur="2s" begin="b.end"/></path><path d="M245.42 1053.33h71.67c1.61 0 2.92 1.31 2.92 2.92V1120c0 1.61-1.31 2.92-2.92 2.92h-71.67c-1.61 0-2.92-1.31-2.92-2.92v-63.75c0-1.61 1.31-2.92 2.92-2.92z"><animate attributeName="opacity" begin="0s;a.end" dur="0.5s" from="0" to="1"/><animate attributeName="opacity" from="1" to="0" dur="2s" begin="b.end"/></path><path d="M2.92 1129.17h71.67c1.61 0 2.92 1.31 2.92 2.92v63.75c0 1.61-1.31 2.92-2.92 2.92H2.92c-1.61 0-2.92-1.31-2.92-2.92v-63.75c0-1.62 1.31-2.92 2.92-2.92z"><animate attributeName="opacity" begin="0s;a.end" dur="0.5s" from="0" to="1"/><animate attributeName="opacity" from="1" to="0" dur="2s" begin="b.end"/></path><path d="M83.75 1129.17h71.67c1.61 0 2.92 1.31 2.92 2.92v63.75c0 1.61-1.31 2.92-2.92 2.92H83.75c-1.61 0-2.92-1.31-2.92-2.92v-63.75c0-1.62 1.31-2.92 2.92-2.92z"><animate attributeName="opacity" begin="0s;a.end" dur="0.5s" from="0" to="1"/><animate attributeName="opacity" from="1" to="0" dur="2s" begin="b.end"/></path><path d="M164.58 1129.17h71.67c1.61 0 2.92 1.31 2.92 2.92v63.75c0 1.61-1.31 2.92-2.92 2.92h-71.67c-1.61 0-2.92-1.31-2.92-2.92v-63.75a2.923 2.923 0 0 1 2.92-2.92z"><animate attributeName="opacity" begin="0s;a.end" dur="0.5s" from="0" to="1"/><animate attributeName="opacity" from="1" to="0" dur="2s" begin="b.end"/></path><path d="M245.42 1129.17h71.67c1.61 0 2.92 1.31 2.92 2.92v63.75c0 1.61-1.31 2.92-2.92 2.92h-71.67c-1.61 0-2.92-1.31-2.92-2.92v-63.75c0-1.62 1.31-2.92 2.92-2.92z"><animate attributeName="opacity" begin="0s;a.end" dur="0.5s" from="0" to="1"/><animate attributeName="opacity" from="1" to="0" dur="2s" begin="b.end"/></path><path d="M2.92 1205h71.67c1.61 0 2.92 1.31 2.92 2.92v63.75c0 1.61-1.31 2.92-2.92 2.92H2.92c-1.61 0-2.92-1.31-2.92-2.92v-63.75c0-1.61 1.31-2.92 2.92-2.92z"><animate attributeName="opacity" begin="0s;a.end" dur="0.5s" from="0" to="1"/><animate attributeName="opacity" from="1" to="0" dur="2s" begin="b.end"/></path><path d="M83.75 1205h71.67c1.61 0 2.92 1.31 2.92 2.92v63.75c0 1.61-1.31 2.92-2.92 2.92H83.75c-1.61 0-2.92-1.31-2.92-2.92v-63.75c0-1.61 1.31-2.92 2.92-2.92z"><animate attributeName="opacity" begin="0s;a.end" dur="0.5s" from="0" to="1"/><animate attributeName="opacity" from="1" to="0" dur="2s" begin="b.end"/></path><path d="M164.58 1205h71.67c1.61 0 2.92 1.31 2.92 2.92v63.75c0 1.61-1.31 2.92-2.92 2.92h-71.67c-1.61 0-2.92-1.31-2.92-2.92v-63.75a2.93 2.93 0 0 1 2.92-2.92z"><animate attributeName="opacity" begin="0s;a.end" dur="0.5s" from="0" to="1"/><animate attributeName="opacity" from="1" to="0" dur="2s" begin="b.end"/></path><path d="M245.42 1205h71.67c1.61 0 2.92 1.31 2.92 2.92v63.75c0 1.61-1.31 2.92-2.92 2.92h-71.67c-1.61 0-2.92-1.31-2.92-2.92v-63.75c0-1.61 1.31-2.92 2.92-2.92z"><animate attributeName="opacity" begin="0s;a.end" dur="0.5s" from="0" to="1"/><animate attributeName="opacity" from="1" to="0" dur="2s" begin="b.end"/></path><path d="M2.92 1280.83h71.67c1.61 0 2.92 1.31 2.92 2.92v63.75c0 1.61-1.31 2.92-2.92 2.92H2.92c-1.61 0-2.92-1.31-2.92-2.92v-63.75c0-1.61 1.31-2.92 2.92-2.92z"><animate attributeName="opacity" begin="0s;a.end" dur="0.5s" from="0" to="1"/><animate attributeName="opacity" from="1" to="0" dur="2s" begin="b.end"/></path><path d="M83.75 1280.83h71.67c1.61 0 2.92 1.31 2.92 2.92v63.75c0 1.61-1.31 2.92-2.92 2.92H83.75c-1.61 0-2.92-1.31-2.92-2.92v-63.75c0-1.61 1.31-2.92 2.92-2.92z"><animate attributeName="opacity" begin="0s;a.end" dur="0.5s" from="0" to="1"/><animate attributeName="opacity" from="1" to="0" dur="2s" begin="b.end"/></path><path d="M164.58 1280.83h71.67c1.61 0 2.92 1.31 2.92 2.92v63.75c0 1.61-1.31 2.92-2.92 2.92h-71.67c-1.61 0-2.92-1.31-2.92-2.92v-63.75a2.93 2.93 0 0 1 2.92-2.92z"><animate attributeName="opacity" begin="0s;a.end" dur="0.5s" from="0" to="1"/><animate attributeName="opacity" from="1" to="0" dur="2s" begin="b.end"/></path><path d="M245.42 1280.83h71.67c1.61 0 2.92 1.31 2.92 2.92v63.75c0 1.61-1.31 2.92-2.92 2.92h-71.67c-1.61 0-2.92-1.31-2.92-2.92v-63.75c0-1.61 1.31-2.92 2.92-2.92z"><animate attributeName="opacity" begin="0s;a.end" dur="0.5s" from="0" to="1"/><animate attributeName="opacity" from="1" to="0" dur="2s" begin="b.end"/></path><path d="M2.92 1356.67h71.67c1.61 0 2.92 1.31 2.92 2.92v63.75c0 1.61-1.31 2.92-2.92 2.92H2.92c-1.61 0-2.92-1.31-2.92-2.92v-63.75c0-1.62 1.31-2.92 2.92-2.92z"><animate attributeName="opacity" begin="0s;a.end" dur="0.5s" from="0" to="1"/><animate attributeName="opacity" from="1" to="0" dur="2s" begin="b.end"/></path><path d="M83.75 1356.67h71.67c1.61 0 2.92 1.31 2.92 2.92v63.75c0 1.61-1.31 2.92-2.92 2.92H83.75c-1.61 0-2.92-1.31-2.92-2.92v-63.75c0-1.62 1.31-2.92 2.92-2.92z"><animate attributeName="opacity" begin="0s;a.end" dur="0.5s" from="0" to="1"/><animate attributeName="opacity" from="1" to="0" dur="2s" begin="b.end"/></path><path d="M164.58 1356.67h71.67c1.61 0 2.92 1.31 2.92 2.92v63.75c0 1.61-1.31 2.92-2.92 2.92h-71.67c-1.61 0-2.92-1.31-2.92-2.92v-63.75a2.923 2.923 0 0 1 2.92-2.92z"><animate attributeName="opacity" begin="0s;a.end" dur="0.5s" from="0" to="1"/><animate attributeName="opacity" from="1" to="0" dur="2s" begin="b.end"/></path><path d="M245.42 1356.67h71.67c1.61 0 2.92 1.31 2.92 2.92v63.75c0 1.61-1.31 2.92-2.92 2.92h-71.67c-1.61 0-2.92-1.31-2.92-2.92v-63.75c0-1.62 1.31-2.92 2.92-2.92z"><animate attributeName="opacity" begin="0s;a.end" dur="0.5s" from="0" to="1"/><animate attributeName="opacity" from="1" to="0" dur="2s" begin="b.end"/></path><path d="M2.92 1432.5h71.67c1.61 0 2.92 1.31 2.92 2.92v63.75c0 1.61-1.31 2.92-2.92 2.92H2.92c-1.61 0-2.92-1.31-2.92-2.92v-63.75c0-1.61 1.31-2.92 2.92-2.92z"><animate attributeName="opacity" begin="0s;a.end" dur="0.5s" from="0" to="1"/><animate attributeName="opacity" from="1" to="0" dur="2s" begin="b.end"/></path><path d="M83.75 1432.5h71.67c1.61 0 2.92 1.31 2.92 2.92v63.75c0 1.61-1.31 2.92-2.92 2.92H83.75c-1.61 0-2.92-1.31-2.92-2.92v-63.75c0-1.61 1.31-2.92 2.92-2.92z"><animate attributeName="opacity" begin="0s;a.end" dur="0.5s" from="0" to="1"/><animate attributeName="opacity" from="1" to="0" dur="2s" begin="b.end"/></path><path d="M164.58 1432.5h71.67c1.61 0 2.92 1.31 2.92 2.92v63.75c0 1.61-1.31 2.92-2.92 2.92h-71.67c-1.61 0-2.92-1.31-2.92-2.92v-63.75a2.93 2.93 0 0 1 2.92-2.92z"><animate attributeName="opacity" begin="0s;a.end" dur="0.5s" from="0" to="1"/><animate attributeName="opacity" from="1" to="0" dur="2s" begin="b.end"/></path><path d="M245.42 1432.5h71.67c1.61 0 2.92 1.31 2.92 2.92v63.75c0 1.61-1.31 2.92-2.92 2.92h-71.67c-1.61 0-2.92-1.31-2.92-2.92v-63.75c0-1.61 1.31-2.92 2.92-2.92z"><animate attributeName="opacity" begin="0s;a.end" dur="0.5s" from="0" to="1"/><animate attributeName="opacity" from="1" to="0" dur="2s" begin="b.end"/></path><path d="M2.92 1508.33h71.67c1.61 0 2.92 1.31 2.92 2.92V1575c0 1.61-1.31 2.92-2.92 2.92H2.92c-1.61 0-2.92-1.31-2.92-2.92v-63.75c0-1.61 1.31-2.92 2.92-2.92z"><animate attributeName="opacity" begin="0s;a.end" dur="0.5s" from="0" to="1"/><animate attributeName="opacity" from="1" to="0" dur="2s" begin="b.end"/></path><path d="M83.75 1508.33h71.67c1.61 0 2.92 1.31 2.92 2.92V1575c0 1.61-1.31 2.92-2.92 2.92H83.75c-1.61 0-2.92-1.31-2.92-2.92v-63.75c0-1.61 1.31-2.92 2.92-2.92z"><animate attributeName="opacity" begin="0s;a.end" dur="0.5s" from="0" to="1"/><animate attributeName="opacity" from="1" to="0" dur="2s" begin="b.end"/></path><path d="M164.58 1508.33h71.67c1.61 0 2.92 1.31 2.92 2.92V1575c0 1.61-1.31 2.92-2.92 2.92h-71.67c-1.61 0-2.92-1.31-2.92-2.92v-63.75a2.93 2.93 0 0 1 2.92-2.92z"><animate attributeName="opacity" begin="0s;a.end" dur="0.5s" from="0" to="1"/><animate attributeName="opacity" from="1" to="0" dur="2s" begin="b.end"/></path><path d="M245.42 1508.33h71.67c1.61 0 2.92 1.31 2.92 2.92V1575c0 1.61-1.31 2.92-2.92 2.92h-71.67c-1.61 0-2.92-1.31-2.92-2.92v-63.75c0-1.61 1.31-2.92 2.92-2.92z"><animate attributeName="opacity" begin="0s;a.end" dur="0.5s" from="0" to="1"/><animate attributeName="opacity" from="1" to="0" dur="2s" begin="b.end"/></path><path d="M2.92 1584.17h71.67c1.61 0 2.92 1.31 2.92 2.92v63.75c0 1.61-1.31 2.92-2.92 2.92H2.92c-1.61 0-2.92-1.31-2.92-2.92v-63.75c0-1.62 1.31-2.92 2.92-2.92z"><animate attributeName="opacity" begin="0s;a.end" dur="0.5s" from="0" to="1"/><animate attributeName="opacity" from="1" to="0" dur="2s" begin="b.end"/></path><path d="M83.75 1584.17h71.67c1.61 0 2.92 1.31 2.92 2.92v63.75c0 1.61-1.31 2.92-2.92 2.92H83.75c-1.61 0-2.92-1.31-2.92-2.92v-63.75c0-1.62 1.31-2.92 2.92-2.92z"><animate attributeName="opacity" begin="0s;a.end" dur="0.5s" from="0" to="1"/><animate attributeName="opacity" from="1" to="0" dur="2s" begin="b.end"/></path><path d="M164.58 1584.17h71.67c1.61 0 2.92 1.31 2.92 2.92v63.75c0 1.61-1.31 2.92-2.92 2.92h-71.67c-1.61 0-2.92-1.31-2.92-2.92v-63.75a2.923 2.923 0 0 1 2.92-2.92z"><animate attributeName="opacity" begin="0s;a.end" dur="0.5s" from="0" to="1"/><animate attributeName="opacity" from="1" to="0" dur="2s" begin="b.end"/></path><path d="M245.42 1584.17h71.67c1.61 0 2.92 1.31 2.92 2.92v63.75c0 1.61-1.31 2.92-2.92 2.92h-71.67c-1.61 0-2.92-1.31-2.92-2.92v-63.75c0-1.62 1.31-2.92 2.92-2.92z"><animate attributeName="opacity" begin="0s;a.end" dur="0.5s" from="0" to="1"/><animate attributeName="opacity" from="1" to="0" dur="2s" begin="b.end"/></path><path d="M2.92 1660h71.67c1.61 0 2.92 1.31 2.92 2.92v63.75c0 1.61-1.31 2.92-2.92 2.92H2.92c-1.61 0-2.92-1.31-2.92-2.92v-63.75c0-1.61 1.31-2.92 2.92-2.92z"><animate attributeName="opacity" begin="0s;a.end" dur="0.5s" from="0" to="1"/><animate attributeName="opacity" from="1" to="0" dur="2s" begin="b.end"/></path><path d="M83.75 1660h71.67c1.61 0 2.92 1.31 2.92 2.92v63.75c0 1.61-1.31 2.92-2.92 2.92H83.75c-1.61 0-2.92-1.31-2.92-2.92v-63.75c0-1.61 1.31-2.92 2.92-2.92z"><animate attributeName="opacity" begin="0s;a.end" dur="0.5s" from="0" to="1"/><animate attributeName="opacity" from="1" to="0" dur="2s" begin="b.end"/></path><path d="M164.58 1660h71.67c1.61 0 2.92 1.31 2.92 2.92v63.75c0 1.61-1.31 2.92-2.92 2.92h-71.67c-1.61 0-2.92-1.31-2.92-2.92v-63.75a2.93 2.93 0 0 1 2.92-2.92z"><animate attributeName="opacity" begin="0s;a.end" dur="0.5s" from="0" to="1"/><animate attributeName="opacity" from="1" to="0" dur="2s" begin="b.end"/></path><path d="M245.42 1660h71.67c1.61 0 2.92 1.31 2.92 2.92v63.75c0 1.61-1.31 2.92-2.92 2.92h-71.67c-1.61 0-2.92-1.31-2.92-2.92v-63.75c0-1.61 1.31-2.92 2.92-2.92z"><animate attributeName="opacity" begin="0s;a.end" dur="0.5s" from="0" to="1"/><animate attributeName="opacity" from="1" to="0" dur="2s" begin="b.end"/></path><path d="M2.92 1735.83h71.67c1.61 0 2.92 1.31 2.92 2.92v63.75c0 1.61-1.31 2.92-2.92 2.92H2.92c-1.61 0-2.92-1.31-2.92-2.92v-63.75c0-1.61 1.31-2.92 2.92-2.92z"><animate attributeName="opacity" begin="0s;a.end" dur="0.5s" from="0" to="1"/><animate attributeName="opacity" from="1" to="0" dur="2s" begin="b.end"/></path><path d="M83.75 1735.83h71.67c1.61 0 2.92 1.31 2.92 2.92v63.75c0 1.61-1.31 2.92-2.92 2.92H83.75c-1.61 0-2.92-1.31-2.92-2.92v-63.75c0-1.61 1.31-2.92 2.92-2.92z"><animate attributeName="opacity" begin="0s;a.end" dur="0.5s" from="0" to="1"/><animate attributeName="opacity" from="1" to="0" dur="2s" begin="b.end"/></path><path d="M164.58 1735.83h71.67c1.61 0 2.92 1.31 2.92 2.92v63.75c0 1.61-1.31 2.92-2.92 2.92h-71.67c-1.61 0-2.92-1.31-2.92-2.92v-63.75a2.93 2.93 0 0 1 2.92-2.92z"><animate attributeName="opacity" begin="0s;a.end" dur="0.5s" from="0" to="1"/><animate attributeName="opacity" from="1" to="0" dur="2s" begin="b.end"/></path><path d="M245.42 1735.83h71.67c1.61 0 2.92 1.31 2.92 2.92v63.75c0 1.61-1.31 2.92-2.92 2.92h-71.67c-1.61 0-2.92-1.31-2.92-2.92v-63.75c0-1.61 1.31-2.92 2.92-2.92z"><animate attributeName="opacity" begin="0s;a.end" dur="0.5s" from="0" to="1"/><animate attributeName="opacity" from="1" to="0" dur="2s" begin="b.end"/></path><path d="M2.92 1811.67h71.67c1.61 0 2.92 1.31 2.92 2.92v63.75c0 1.61-1.31 2.92-2.92 2.92H2.92c-1.61 0-2.92-1.31-2.92-2.92v-63.75c0-1.62 1.31-2.92 2.92-2.92z"><animate attributeName="opacity" begin="0s;a.end" dur="0.5s" from="0" to="1"/><animate attributeName="opacity" from="1" to="0" dur="2s" begin="b.end"/></path><path d="M83.75 1811.67h71.67c1.61 0 2.92 1.31 2.92 2.92v63.75c0 1.61-1.31 2.92-2.92 2.92H83.75c-1.61 0-2.92-1.31-2.92-2.92v-63.75c0-1.62 1.31-2.92 2.92-2.92z"><animate attributeName="opacity" begin="0s;a.end" dur="0.5s" from="0" to="1"/><animate attributeName="opacity" from="1" to="0" dur="2s" begin="b.end"/></path><path d="M164.58 1811.67h71.67c1.61 0 2.92 1.31 2.92 2.92v63.75c0 1.61-1.31 2.92-2.92 2.92h-71.67c-1.61 0-2.92-1.31-2.92-2.92v-63.75a2.923 2.923 0 0 1 2.92-2.92z"><animate attributeName="opacity" begin="0s;a.end" dur="0.5s" from="0" to="1"/><animate attributeName="opacity" from="1" to="0" dur="2s" begin="b.end"/></path><path d="M245.42 1811.67h71.67c1.61 0 2.92 1.31 2.92 2.92v63.75c0 1.61-1.31 2.92-2.92 2.92h-71.67c-1.61 0-2.92-1.31-2.92-2.92v-63.75c0-1.62 1.31-2.92 2.92-2.92z"><animate attributeName="opacity" begin="0s;a.end" dur="0.5s" from="0" to="1"/><animate attributeName="opacity" from="1" to="0" dur="2s" begin="b.end"/></path><path d="M2.92 1887.5h71.67c1.61 0 2.92 1.31 2.92 2.92v63.75c0 1.61-1.31 2.92-2.92 2.92H2.92c-1.61 0-2.92-1.31-2.92-2.92v-63.75c0-1.61 1.31-2.92 2.92-2.92z"><animate attributeName="opacity" begin="0s;a.end" dur="0.5s" from="0" to="1"/><animate attributeName="opacity" from="1" to="0" dur="2s" begin="b.end"/></path><path d="M83.75 1887.5h71.67c1.61 0 2.92 1.31 2.92 2.92v63.75c0 1.61-1.31 2.92-2.92 2.92H83.75c-1.61 0-2.92-1.31-2.92-2.92v-63.75c0-1.61 1.31-2.92 2.92-2.92z"><animate attributeName="opacity" begin="0s;a.end" dur="0.5s" from="0" to="1"/><animate attributeName="opacity" from="1" to="0" dur="2s" begin="b.end"/></path><path d="M164.58 1887.5h71.67c1.61 0 2.92 1.31 2.92 2.92v63.75c0 1.61-1.31 2.92-2.92 2.92h-71.67c-1.61 0-2.92-1.31-2.92-2.92v-63.75a2.93 2.93 0 0 1 2.92-2.92z"><animate attributeName="opacity" begin="0s;a.end" dur="0.5s" from="0" to="1"/><animate attributeName="opacity" from="1" to="0" dur="2s" begin="b.end"/></path><path d="M245.42 1887.5h71.67c1.61 0 2.92 1.31 2.92 2.92v63.75c0 1.61-1.31 2.92-2.92 2.92h-71.67c-1.61 0-2.92-1.31-2.92-2.92v-63.75c0-1.61 1.31-2.92 2.92-2.92z"><animate attributeName="opacity" begin="0s;a.end" dur="0.5s" from="0" to="1"/><animate attributeName="opacity" from="1" to="0" dur="2s" begin="b.end"/></path></svg>