<svg xmlns="http://www.w3.org/2000/svg" xmlns:xlink="http://www.w3.org/1999/xlink" id="Capa_1" x="0px" y="0px" viewBox="0 0 74 74" style="enable-background:new 0 0 74 74;" xml:space="preserve"><style type="text/css">	.st0{clip-path:url(#SVGID_00000082349034834735668310000011480714072212581256_);}	.st1{fill:url(#SVGID_00000183244653238198741050000001291584305671324342_);}	.st2{fill:url(#SVGID_00000178918394694529254710000003728936474251535763_);}	.st3{fill:#FFFFFF;}	.st4{fill:#1977F3;}	.st5{fill:#1D9BF0;}	.st6{fill:#FF004F;}	.st7{fill:#00F2EA;}	.st8{fill:#D8D8D8;}	.st9{fill:#34A853;}	.st10{fill:#FBBC04;}	.st11{fill:#EA4335;}	.st12{fill:#4285F4;}	.st13{fill:#9049FD;}	.st14{fill:#FDFCFE;}	.st15{fill:#3C8BD9;}	.st16{fill:#FABC04;}	.st17{fill:#34A852;}	.st18{fill:#E1C025;}	.st19{fill:#757575;}	.st20{fill:#3C4BA6;}	.st21{fill:#FF0000;}	.st22{fill:#CA2127;}	.st23{fill:#4989F5;}	.st24{fill:url(#SVGID_00000024682925339395129330000014433831091819637930_);}	.st25{fill:#7BABF7;}	.st26{fill:#3F51B5;}	.st27{fill-rule:evenodd;clip-rule:evenodd;fill:#709BE0;}	.st28{fill-rule:evenodd;clip-rule:evenodd;fill:#3C4BA6;}	.st29{enable-background:new    ;}	.st30{fill:#EE1D52;}	.st31{fill:#69C9D0;}</style><g>	<path class="st20" d="M37,2c19.3,0,35,15.7,35,35S56.3,72,37,72S2,56.3,2,37S17.7,2,37,2 M37,0C16.57,0,0,16.57,0,37  s16.57,37,37,37c20.43,0,37-16.57,37-37S57.43,0,37,0L37,0z"></path></g><g>	<g>		<path class="st23" d="M17.87,26.96H55c0.88,0,1.6,0.72,1.6,1.6v26.95c0,0.88-0.72,1.6-1.6,1.6H17.87c-0.88,0-1.6-0.72-1.6-1.6   V28.56C16.28,27.68,16.99,26.96,17.87,26.96z"></path>					<linearGradient id="SVGID_00000120540868353072533120000011686481385268657826_" gradientUnits="userSpaceOnUse" x1="-859.7675" y1="75.3004" x2="-859.749" y2="75.3004" gradientTransform="matrix(2185.0801 0 0 -1647.9559 1878677 124133.7031)">			<stop offset="0.03" style="stop-color:#4079D8"></stop>			<stop offset="1" style="stop-color:#4989F5"></stop>		</linearGradient>		<path style="fill:url(#SVGID_00000120540868353072533120000011686481385268657826_);" d="M54.53,26.74H18.3c-1.12,0-2,8.69-2,9.81   l19.84,20.56h18.39c1.13,0,2.04-0.92,2.04-2.04V28.78C56.57,27.65,55.66,26.74,54.53,26.74z"></path>		<path class="st20" d="M25.48,32.01H37V16.89h-9.79L25.48,32.01z"></path>		<path class="st25" d="M48.52,32.01H37V16.89h9.79L48.52,32.01z M56.59,19.76l0.01,0.05C56.6,19.79,56.6,19.77,56.59,19.76z"></path>		<path class="st26" d="M56.61,19.81l-0.01-0.05c-0.37-1.67-1.85-2.86-3.56-2.87H46.8l1.72,15.12h11.52L56.61,19.81z"></path>		<path class="st25" d="M17.41,19.76l-0.01,0.05C17.4,19.79,17.41,19.77,17.41,19.76z"></path>		<path class="st25" d="M17.39,19.81l0.01-0.05c0.37-1.67,1.85-2.86,3.56-2.87h6.24l-1.73,15.12H13.96L17.39,19.81z"></path>	</g>	<path class="st27" d="M25.5,32.01c0,3.18-2.58,5.76-5.76,5.76s-5.76-2.58-5.76-5.76H25.5z"></path>	<path class="st28" d="M37.01,32.01c0,3.18-2.58,5.76-5.76,5.76c-3.18,0-5.76-2.58-5.76-5.76H37.01z"></path>	<path class="st27" d="M48.53,32.01c0,3.18-2.58,5.76-5.76,5.76c-3.18,0-5.76-2.58-5.76-5.76H48.53z"></path>	<path class="st28" d="M60.04,32.01c0,3.18-2.58,5.76-5.76,5.76c-3.18,0-5.76-2.58-5.76-5.76H60.04z"></path>	<path class="st3" d="M54.28,47.6c-0.02-0.27-0.05-0.52-0.1-0.84H47.9c0,0.88,0,1.84,0,2.72h3.64c-0.16,0.83-0.64,1.56-1.33,2.03  c0,0,0-0.02,0-0.02c-0.45,0.29-0.95,0.49-1.47,0.57c-0.53,0.1-1.07,0.09-1.59-0.01c-0.53-0.11-1.04-0.33-1.49-0.64  c-0.66-0.47-1.17-1.12-1.46-1.87c-0.02-0.06-0.04-0.12-0.06-0.18v-0.01l0.01,0c-0.29-0.84-0.29-1.75,0-2.59  c0.2-0.59,0.53-1.13,0.97-1.57c1.02-1.06,2.55-1.45,3.95-1.03c0.54,0.17,1.03,0.46,1.44,0.85l1.23-1.23  c0.22-0.22,0.44-0.43,0.65-0.66c-0.62-0.58-1.35-1.03-2.15-1.33c-1.45-0.53-3.04-0.54-4.5-0.04c-0.05,0.02-0.1,0.04-0.15,0.05  c-1.57,0.59-2.87,1.75-3.63,3.25c-0.27,0.53-0.46,1.1-0.58,1.68c-0.7,3.45,1.41,6.85,4.82,7.77c1.11,0.3,2.3,0.29,3.42,0.04  c1.02-0.23,1.96-0.72,2.73-1.42c0.81-0.74,1.39-1.73,1.69-2.78C54.26,49.45,54.36,48.52,54.28,47.6L54.28,47.6z"></path></g></svg>