<svg xmlns="http://www.w3.org/2000/svg" xmlns:xlink="http://www.w3.org/1999/xlink" id="Capa_1" x="0px" y="0px" viewBox="0 0 74 74" style="enable-background:new 0 0 74 74;" xml:space="preserve"><style type="text/css">	.st0{clip-path:url(#SVGID_00000084500015726815041040000006893091341972577944_);}	.st1{fill:url(#SVGID_00000182509629542861530580000006763732114025199528_);}	.st2{fill:url(#SVGID_00000035494914078466676450000016780998022927130011_);}	.st3{fill:#FFFFFF;}	.st4{fill:#1977F3;}	.st5{fill:#1D9BF0;}	.st6{fill:#FF004F;}	.st7{fill:#00F2EA;}	.st8{fill:#D8D8D8;}	.st9{fill:#34A853;}	.st10{fill:#FBBC04;}	.st11{fill:#EA4335;}	.st12{fill:#4285F4;}	.st13{fill:#9049FD;}	.st14{fill:#FDFCFE;}	.st15{fill:#3C8BD9;}	.st16{fill:#FABC04;}	.st17{fill:#34A852;}	.st18{fill:#E1C025;}	.st19{fill:#757575;}	.st20{fill:#3C4BA6;}	.st21{fill:#FF0000;}	.st22{fill:#CA2127;}	.st23{fill:#4989F5;}	.st24{fill:url(#SVGID_00000120518115582644318070000005002023351366045602_);}	.st25{fill:#7BABF7;}	.st26{fill:#3F51B5;}	.st27{fill-rule:evenodd;clip-rule:evenodd;fill:#709BE0;}	.st28{fill-rule:evenodd;clip-rule:evenodd;fill:#3C4BA6;}	.st29{enable-background:new    ;}	.st30{fill:#EE1D52;}	.st31{fill:#69C9D0;}</style><g>	<path class="st22" d="M74,37c0,20.43-16.57,37-37,37S0,57.43,0,37C0,16.57,16.57,0,37,0S74,16.57,74,37z"></path>	<path class="st3" d="M33.9,12.39c-10.43,1.12-20.81,9.14-21.23,20.62c-0.27,7.01,2.66,12.26,9.67,13.74  c0.8-3.31,0.95-5.11,0.95-5.11s-3.08-2.95-3.4-4.83c-2.58-15.11,18.3-25.43,29.25-14.88c7.56,7.32,2.58,29.84-9.62,27.5  c-11.69-2.24,5.72-20.16-3.61-23.68c-7.58-2.87-11.61,8.76-8.02,14.52c-2.11,9.92-6.65,19.27-4.81,31.7  c5.97-4.12,7.98-12.01,9.62-20.24c3,1.73,4.6,3.55,8.42,3.82c14.1,1.03,21.97-13.4,20.05-26.74C59.44,16.99,47.07,10.98,33.9,12.39  L33.9,12.39z"></path></g></svg>