<svg xmlns="http://www.w3.org/2000/svg" xmlns:xlink="http://www.w3.org/1999/xlink" id="Capa_1" x="0px" y="0px" viewBox="0 0 74 74" style="enable-background:new 0 0 74 74;" xml:space="preserve"><style type="text/css">	.st0{clip-path:url(#SVGID_00000075845663461301958170000001347255596978915767_);}	.st1{fill:url(#SVGID_00000035518283604302058970000016282012358243088790_);}	.st2{fill:url(#SVGID_00000090293002281366254720000010053617606746353821_);}	.st3{fill:#FFFFFF;}	.st4{fill:#1977F3;}	.st5{fill:#1D9BF0;}	.st6{fill:#FF004F;}	.st7{fill:#00F2EA;}	.st8{fill:#D8D8D8;}	.st9{fill:#34A853;}	.st10{fill:#FBBC04;}	.st11{fill:#EA4335;}	.st12{fill:#4285F4;}	.st13{fill:#9049FD;}	.st14{fill:#FDFCFE;}	.st15{fill:#3C8BD9;}	.st16{fill:#FABC04;}	.st17{fill:#34A852;}	.st18{fill:#E1C025;}	.st19{fill:#757575;}	.st20{fill:#3C4BA6;}	.st21{fill:#FF0000;}	.st22{fill:#CA2127;}	.st23{fill:#4989F5;}	.st24{fill:url(#SVGID_00000072273341820263134590000011099648909546401715_);}	.st25{fill:#7BABF7;}	.st26{fill:#3F51B5;}	.st27{fill-rule:evenodd;clip-rule:evenodd;fill:#709BE0;}	.st28{fill-rule:evenodd;clip-rule:evenodd;fill:#3C4BA6;}	.st29{enable-background:new    ;}	.st30{fill:#EE1D52;}	.st31{fill:#69C9D0;}</style><circle cx="37" cy="37" r="37"></circle><g>	<path class="st6" d="M47.01,30.48c3.03,2.16,6.74,3.44,10.74,3.44v-7.71c-0.76,0-1.51-0.08-2.26-0.24v6.07  c-4.01,0-7.71-1.27-10.74-3.44v15.72c0,7.87-6.38,14.24-14.25,14.24c-2.94,0-5.67-0.89-7.93-2.41c2.59,2.64,6.2,4.28,10.19,4.28  c7.87,0,14.25-6.38,14.25-14.24L47.01,30.48L47.01,30.48z M49.79,22.71c-1.55-1.69-2.56-3.87-2.78-6.29v-0.99h-2.14  C45.41,18.5,47.24,21.12,49.79,22.71L49.79,22.71z M27.55,50.13c-0.86-1.13-1.33-2.52-1.33-3.94c0-3.6,2.92-6.51,6.52-6.51  c0.67,0,1.34,0.1,1.98,0.31V32.1c-0.75-0.1-1.5-0.15-2.26-0.13v6.13c-0.64-0.2-1.31-0.31-1.98-0.31c-3.6,0-6.52,2.92-6.52,6.51  C23.96,46.85,25.42,49.05,27.55,50.13z"></path>	<path class="st3" d="M44.75,28.6c3.03,2.16,6.74,3.44,10.74,3.44v-6.07c-2.24-0.48-4.22-1.64-5.7-3.27  c-2.55-1.59-4.38-4.21-4.92-7.28h-5.62V46.2c-0.01,3.59-2.93,6.49-6.52,6.49c-2.12,0-4-1.01-5.19-2.57  c-2.13-1.07-3.59-3.28-3.59-5.82c0-3.6,2.92-6.51,6.52-6.51c0.69,0,1.35,0.11,1.98,0.31v-6.13c-7.73,0.16-13.95,6.47-13.95,14.24  c0,3.88,1.55,7.39,4.06,9.96c2.27,1.52,5,2.41,7.93,2.41c7.87,0,14.25-6.38,14.25-14.24L44.75,28.6L44.75,28.6z"></path>	<path class="st7" d="M55.49,25.98v-1.64c-2.02,0-3.99-0.56-5.7-1.63C51.3,24.36,53.3,25.51,55.49,25.98z M44.87,15.43  c-0.05-0.29-0.09-0.59-0.12-0.88v-0.99H37v30.78c-0.01,3.59-2.93,6.49-6.52,6.49c-1.05,0-2.05-0.25-2.93-0.69  c1.19,1.56,3.07,2.57,5.19,2.57c3.59,0,6.51-2.9,6.52-6.49V15.43H44.87z M32.46,31.97v-1.75c-0.65-0.09-1.3-0.13-1.96-0.13  c-7.87,0-14.25,6.38-14.25,14.24c0,4.93,2.51,9.28,6.32,11.83c-2.51-2.57-4.06-6.08-4.06-9.96C18.51,38.44,24.72,32.13,32.46,31.97  z"></path></g></svg>