<svg xmlns="http://www.w3.org/2000/svg" xmlns:xlink="http://www.w3.org/1999/xlink" id="Capa_1" x="0px" y="0px" viewBox="0 0 74 74" style="enable-background:new 0 0 74 74;" xml:space="preserve"><style type="text/css">	.st0{clip-path:url(#SVGID_00000107550767589669480130000000774733519078314376_);}	.st1{fill:url(#SVGID_00000002347803852911171330000017725464361131556512_);}	.st2{fill:url(#SVGID_00000059292882027003926540000012000233291336339117_);}	.st3{fill:#FFFFFF;}	.st4{fill:#1977F3;}	.st5{fill:#1D9BF0;}	.st6{fill:#FF004F;}	.st7{fill:#00F2EA;}	.st8{fill:#D8D8D8;}	.st9{fill:#34A853;}	.st10{fill:#FBBC04;}	.st11{fill:#EA4335;}	.st12{fill:#4285F4;}	.st13{fill:#9049FD;}	.st14{fill:#FDFCFE;}	.st15{fill:#3C8BD9;}	.st16{fill:#FABC04;}	.st17{fill:#34A852;}	.st18{fill:#E1C025;}	.st19{fill:#757575;}	.st20{fill:#3C4BA6;}	.st21{fill:#FF0000;}	.st22{fill:#CA2127;}	.st23{fill:#4989F5;}	.st24{fill:url(#SVGID_00000060731339209223887350000014237365344319555774_);}	.st25{fill:#7BABF7;}	.st26{fill:#3F51B5;}	.st27{fill-rule:evenodd;clip-rule:evenodd;fill:#709BE0;}	.st28{fill-rule:evenodd;clip-rule:evenodd;fill:#3C4BA6;}	.st29{enable-background:new    ;}	.st30{fill:#EE1D52;}	.st31{fill:#69C9D0;}</style><g>	<path class="st8" d="M37,1c19.85,0,36,16.15,36,36S56.85,73,37,73S1,56.85,1,37S17.15,1,37,1 M37,0C16.57,0,0,16.57,0,37  s16.57,37,37,37c20.43,0,37-16.57,37-37S57.43,0,37,0L37,0z"></path></g><path class="st21" d="M38.09,53.97L28,53.79c-3.27-0.06-6.54,0.06-9.75-0.6c-4.87-1-5.22-5.88-5.58-9.97 c-0.5-5.76-0.31-11.62,0.63-17.33c0.53-3.2,2.62-5.12,5.85-5.32c10.9-0.75,21.87-0.67,32.74-0.31c1.15,0.03,2.3,0.21,3.44,0.41 c5.59,0.98,5.73,6.51,6.09,11.17c0.36,4.71,0.21,9.44-0.48,14.11c-0.55,3.87-1.61,7.11-6.09,7.43c-5.61,0.41-11.08,0.74-16.7,0.63 C38.14,53.97,38.11,53.97,38.09,53.97z M32.16,44.18c4.22-2.43,8.37-4.81,12.57-7.22c-4.23-2.43-8.37-4.81-12.57-7.22V44.18z"></path></svg>